<?xml version="1.0" encoding="UTF-8"?>
<svg id="Layer_1" data-name="Layer 1" xmlns="http://www.w3.org/2000/svg" viewBox="0 0 14.03 5.27">
  <defs>
    <style>
      .cls-1 {
        fill: #f69e9b;
        stroke: #f69e9b;
        stroke-miterlimit: 10;
        stroke-width: .4px;
      }
    </style>
  </defs>
  <path class="cls-1" d="M2.21.27H.63C.41.27.2,1.07.2,1.87v1.6c0,.8.22,1.6.43,1.6h1.58c.22,0,.43-.8.43-1.6v-1.6c0-.8-.22-1.6-.43-1.6"/>
  <path class="cls-1" d="M5.01.27h-1.58c-.22,0-.43.8-.43,1.6v1.6c0,.8.22,1.6.43,1.6h1.58c.22,0,.43-.8.43-1.6v-1.6c0-.8-.22-1.6-.43-1.6"/>
  <path class="cls-1" d="M7.81.27h-1.58c-.22,0-.43.8-.43,1.6v1.6c0,.8.22,1.6.43,1.6h1.58c.22,0,.43-.8.43-1.6v-1.6c0-.8-.22-1.6-.43-1.6"/>
  <g id="node218-2">
    <path class="cls-1" d="M10.6.2h-1.58c-.22,0-.43.8-.43,1.6v1.6c0,.8.22,1.6.43,1.6h1.58c.22,0,.43-.8.43-1.6v-1.6c0-.8-.22-1.6-.43-1.6"/>
  </g>
  <path class="cls-1" d="M13.4.2h-1.58c-.22,0-.43.8-.43,1.6v1.6c0,.8.22,1.6.43,1.6h1.58c.22,0,.43-.8.43-1.6v-1.6c0-.8-.22-1.6-.43-1.6"/>
</svg>