<?xml version="1.0" encoding="UTF-8"?>
<svg id="Layer_1" data-name="Layer 1" xmlns="http://www.w3.org/2000/svg" viewBox="0 0 25.77 14.15">
  <defs>
    <style>
      .cls-1 {
        fill: #f0d3e6;
        stroke-width: 0px;
      }
    </style>
  </defs>
  <ellipse class="cls-1" cx="12.89" cy="1.92" rx="3.5" ry="1.92"/>
  <path class="cls-1" d="M8.72,2.07c1.37.75,1.37,1.97,0,2.72s-3.58.75-4.95,0-1.37-1.97,0-2.72,3.58-.75,4.95,0Z"/>
  <ellipse class="cls-1" cx="3.5" cy="7.07" rx="3.5" ry="1.92"/>
  <path class="cls-1" d="M3.77,9.36c1.37-.75,3.58-.75,4.95,0s1.37,1.97,0,2.72-3.58.75-4.95,0-1.37-1.97,0-2.72Z"/>
  <ellipse class="cls-1" cx="12.89" cy="12.23" rx="3.5" ry="1.92"/>
  <path class="cls-1" d="M17.05,12.08c-1.37-.75-1.37-1.97,0-2.72s3.58-.75,4.95,0,1.37,1.97,0,2.72-3.58.75-4.95,0Z"/>
  <ellipse class="cls-1" cx="22.28" cy="7.08" rx="3.5" ry="1.92"/>
  <path class="cls-1" d="M22,4.79c-1.37.75-3.58.75-4.95,0s-1.37-1.97,0-2.72,3.58-.75,4.95,0,1.37,1.97,0,2.72Z"/>
</svg>