<?xml version="1.0" encoding="UTF-8"?>
<svg id="Layer_1" data-name="Layer 1" xmlns="http://www.w3.org/2000/svg" viewBox="0 0 30.73 11.46">
  <defs>
    <style>
      .cls-1 {
        fill: #a8dcdb;
        stroke: #a8dcdb;
        stroke-miterlimit: 4;
        stroke-width: .4px;
      }
    </style>
  </defs>
  <g id="node218">
    <path class="cls-1" d="M2.98.36H.79C.5.36.2,2.17.2,3.99v3.63c0,1.82.3,3.63.59,3.63h2.18c.3,0,.59-1.82.59-3.63v-3.63c0-1.82-.3-3.63-.59-3.63"/>
  </g>
  <path class="cls-1" d="M6.83.36h-2.18c-.3,0-.59,1.82-.59,3.63v3.63c0,1.82.3,3.63.59,3.63h2.18c.3,0,.59-1.82.59-3.63v-3.63c0-1.82-.3-3.63-.59-3.63"/>
  <path class="cls-1" d="M10.68.36h-2.18c-.3,0-.59,1.82-.59,3.63v3.63c0,1.82.3,3.63.59,3.63h2.18c.3,0,.59-1.82.59-3.63v-3.63c0-1.82-.3-3.63-.59-3.63"/>
  <path class="cls-1" d="M14.53.36h-2.18c-.3,0-.59,1.82-.59,3.63v3.63c0,1.82.3,3.63.59,3.63h2.18c.3,0,.59-1.82.59-3.63v-3.63c0-1.82-.3-3.63-.59-3.63"/>
  <g id="node218-2" data-name="node218">
    <path class="cls-1" d="M18.38.2h-2.18c-.3,0-.59,1.82-.59,3.63v3.63c0,1.82.3,3.63.59,3.63h2.18c.3,0,.59-1.82.59-3.63v-3.63c0-1.82-.3-3.63-.59-3.63"/>
  </g>
  <path class="cls-1" d="M22.23.2h-2.18c-.3,0-.59,1.82-.59,3.63v3.63c0,1.82.3,3.63.59,3.63h2.18c.3,0,.59-1.82.59-3.63v-3.63c0-1.82-.3-3.63-.59-3.63"/>
  <path class="cls-1" d="M26.08.2h-2.18c-.3,0-.59,1.82-.59,3.63v3.63c0,1.82.3,3.63.59,3.63h2.18c.3,0,.59-1.82.59-3.63v-3.63c0-1.82-.3-3.63-.59-3.63"/>
  <path class="cls-1" d="M29.93.2h-2.18c-.3,0-.59,1.82-.59,3.63v3.63c0,1.82.3,3.63.59,3.63h2.18c.3,0,.59-1.82.59-3.63v-3.63c0-1.82-.3-3.63-.59-3.63"/>
</svg>